<mxfile host="app.diagrams.net" modified="2023-11-13T09:45:23.658Z" agent="Mozilla/5.0 (Windows NT 10.0; Win64; x64) AppleWebKit/537.36 (KHTML, like Gecko) Chrome/119.0.0.0 Safari/537.36" etag="2iEAe3G8V4_d5cl63cln" version="22.1.0" type="github">
  <diagram name="Page-1" id="e7e014a7-5840-1c2e-5031-d8a46d1fe8dd">
    <mxGraphModel dx="1313" dy="653" grid="1" gridSize="10" guides="1" tooltips="1" connect="1" arrows="1" fold="1" page="1" pageScale="1" pageWidth="1169" pageHeight="826" background="none" math="0" shadow="0">
      <root>
        <mxCell id="0" />
        <mxCell id="1" parent="0" />
        <mxCell id="MZzC99SMCp3GKgWhD1Pa-60" style="edgeStyle=orthogonalEdgeStyle;rounded=0;orthogonalLoop=1;jettySize=auto;html=1;exitX=1;exitY=0.5;exitDx=0;exitDy=0;entryX=0;entryY=0.5;entryDx=0;entryDy=0;" edge="1" parent="1" source="MZzC99SMCp3GKgWhD1Pa-66" target="MZzC99SMCp3GKgWhD1Pa-69">
          <mxGeometry relative="1" as="geometry" />
        </mxCell>
        <mxCell id="MZzC99SMCp3GKgWhD1Pa-61" style="edgeStyle=orthogonalEdgeStyle;rounded=0;orthogonalLoop=1;jettySize=auto;html=1;entryX=0;entryY=0.5;entryDx=0;entryDy=0;" edge="1" parent="1" source="MZzC99SMCp3GKgWhD1Pa-66" target="MZzC99SMCp3GKgWhD1Pa-68">
          <mxGeometry relative="1" as="geometry">
            <mxPoint x="450" y="173" as="targetPoint" />
            <Array as="points">
              <mxPoint x="440" y="333" />
              <mxPoint x="440" y="173" />
            </Array>
          </mxGeometry>
        </mxCell>
        <mxCell id="MZzC99SMCp3GKgWhD1Pa-62" style="edgeStyle=orthogonalEdgeStyle;rounded=0;orthogonalLoop=1;jettySize=auto;html=1;entryX=0.052;entryY=0.69;entryDx=0;entryDy=0;entryPerimeter=0;" edge="1" parent="1" source="MZzC99SMCp3GKgWhD1Pa-66" target="MZzC99SMCp3GKgWhD1Pa-67">
          <mxGeometry relative="1" as="geometry">
            <mxPoint x="350" y="513" as="targetPoint" />
            <Array as="points">
              <mxPoint x="440" y="333" />
              <mxPoint x="440" y="421" />
            </Array>
          </mxGeometry>
        </mxCell>
        <mxCell id="MZzC99SMCp3GKgWhD1Pa-63" style="edgeStyle=orthogonalEdgeStyle;rounded=0;orthogonalLoop=1;jettySize=auto;html=1;entryX=0;entryY=0.5;entryDx=0;entryDy=0;" edge="1" parent="1" source="MZzC99SMCp3GKgWhD1Pa-66" target="MZzC99SMCp3GKgWhD1Pa-71">
          <mxGeometry relative="1" as="geometry">
            <mxPoint x="400" y="463" as="targetPoint" />
            <Array as="points">
              <mxPoint x="440" y="333" />
              <mxPoint x="440" y="493" />
            </Array>
          </mxGeometry>
        </mxCell>
        <mxCell id="MZzC99SMCp3GKgWhD1Pa-64" style="edgeStyle=orthogonalEdgeStyle;rounded=0;orthogonalLoop=1;jettySize=auto;html=1;entryX=0;entryY=0.5;entryDx=0;entryDy=0;" edge="1" parent="1" source="MZzC99SMCp3GKgWhD1Pa-66" target="MZzC99SMCp3GKgWhD1Pa-70">
          <mxGeometry relative="1" as="geometry">
            <mxPoint x="450" y="243" as="targetPoint" />
            <Array as="points">
              <mxPoint x="440" y="333" />
              <mxPoint x="440" y="253" />
            </Array>
          </mxGeometry>
        </mxCell>
        <mxCell id="MZzC99SMCp3GKgWhD1Pa-65" style="edgeStyle=orthogonalEdgeStyle;rounded=0;orthogonalLoop=1;jettySize=auto;html=1;entryX=0;entryY=0.5;entryDx=0;entryDy=0;" edge="1" parent="1" source="MZzC99SMCp3GKgWhD1Pa-66" target="MZzC99SMCp3GKgWhD1Pa-73">
          <mxGeometry relative="1" as="geometry">
            <mxPoint x="490" y="573" as="targetPoint" />
            <Array as="points">
              <mxPoint x="440" y="333" />
              <mxPoint x="440" y="603" />
            </Array>
          </mxGeometry>
        </mxCell>
        <mxCell id="MZzC99SMCp3GKgWhD1Pa-66" value="Employe" style="whiteSpace=wrap;html=1;align=center;fontStyle=1" vertex="1" parent="1">
          <mxGeometry x="300" y="313" width="100" height="40" as="geometry" />
        </mxCell>
        <mxCell id="MZzC99SMCp3GKgWhD1Pa-67" value="Email" style="ellipse;whiteSpace=wrap;html=1;align=center;" vertex="1" parent="1">
          <mxGeometry x="500" y="393" width="100" height="40" as="geometry" />
        </mxCell>
        <mxCell id="MZzC99SMCp3GKgWhD1Pa-68" value="ID" style="ellipse;whiteSpace=wrap;html=1;align=center;" vertex="1" parent="1">
          <mxGeometry x="500" y="153" width="100" height="40" as="geometry" />
        </mxCell>
        <mxCell id="MZzC99SMCp3GKgWhD1Pa-69" value="Name" style="ellipse;whiteSpace=wrap;html=1;align=center;" vertex="1" parent="1">
          <mxGeometry x="500" y="313" width="100" height="40" as="geometry" />
        </mxCell>
        <mxCell id="MZzC99SMCp3GKgWhD1Pa-70" value="Number" style="ellipse;whiteSpace=wrap;html=1;align=center;" vertex="1" parent="1">
          <mxGeometry x="500" y="233" width="100" height="40" as="geometry" />
        </mxCell>
        <mxCell id="MZzC99SMCp3GKgWhD1Pa-71" value="Salary" style="ellipse;whiteSpace=wrap;html=1;align=center;" vertex="1" parent="1">
          <mxGeometry x="500" y="473" width="100" height="40" as="geometry" />
        </mxCell>
        <mxCell id="MZzC99SMCp3GKgWhD1Pa-72" value="" style="edgeStyle=orthogonalEdgeStyle;rounded=0;orthogonalLoop=1;jettySize=auto;html=1;" edge="1" parent="1" source="MZzC99SMCp3GKgWhD1Pa-73" target="MZzC99SMCp3GKgWhD1Pa-76">
          <mxGeometry relative="1" as="geometry" />
        </mxCell>
        <mxCell id="MZzC99SMCp3GKgWhD1Pa-73" value="Department" style="whiteSpace=wrap;html=1;align=center;" vertex="1" parent="1">
          <mxGeometry x="500" y="583" width="100" height="40" as="geometry" />
        </mxCell>
        <mxCell id="MZzC99SMCp3GKgWhD1Pa-74" value="Salary" style="ellipse;whiteSpace=wrap;html=1;align=center;" vertex="1" parent="1">
          <mxGeometry x="700" y="473" width="100" height="40" as="geometry" />
        </mxCell>
        <mxCell id="MZzC99SMCp3GKgWhD1Pa-75" value="Salary" style="ellipse;whiteSpace=wrap;html=1;align=center;" vertex="1" parent="1">
          <mxGeometry x="700" y="633" width="100" height="40" as="geometry" />
        </mxCell>
        <mxCell id="MZzC99SMCp3GKgWhD1Pa-76" value="Salary" style="ellipse;whiteSpace=wrap;html=1;align=center;" vertex="1" parent="1">
          <mxGeometry x="700" y="553" width="100" height="40" as="geometry" />
        </mxCell>
        <mxCell id="MZzC99SMCp3GKgWhD1Pa-77" value="" style="edgeStyle=none;orthogonalLoop=1;jettySize=auto;html=1;rounded=0;entryX=0;entryY=0.5;entryDx=0;entryDy=0;" edge="1" parent="1" target="MZzC99SMCp3GKgWhD1Pa-75">
          <mxGeometry width="100" relative="1" as="geometry">
            <mxPoint x="610" y="603" as="sourcePoint" />
            <mxPoint x="650" y="663" as="targetPoint" />
            <Array as="points">
              <mxPoint x="650" y="603" />
              <mxPoint x="650" y="653" />
            </Array>
          </mxGeometry>
        </mxCell>
        <mxCell id="MZzC99SMCp3GKgWhD1Pa-78" value="" style="edgeStyle=orthogonalEdgeStyle;rounded=0;orthogonalLoop=1;jettySize=auto;html=1;entryX=0;entryY=0.5;entryDx=0;entryDy=0;" edge="1" parent="1" source="MZzC99SMCp3GKgWhD1Pa-73" target="MZzC99SMCp3GKgWhD1Pa-74">
          <mxGeometry relative="1" as="geometry">
            <mxPoint x="610" y="603" as="sourcePoint" />
            <mxPoint x="660" y="493" as="targetPoint" />
            <Array as="points">
              <mxPoint x="650" y="603" />
              <mxPoint x="650" y="493" />
            </Array>
          </mxGeometry>
        </mxCell>
      </root>
    </mxGraphModel>
  </diagram>
</mxfile>
